HIERARCHY
ROOT Hips
{
	OFFSET -0.179506 -22.333345 2.821913
	CHANNELS 6 Xposition Yposition Zposition Zrotation Yrotation Xrotation 
	JOINT LeftUpLeg
	{
		OFFSET 6.951974 -9.140623 -0.681533
		CHANNELS 3 Zrotation Yrotation Xrotation
		JOINT LeftLeg
		{
			OFFSET 3.427654 -37.519855 -0.449580
			CHANNELS 3 Zrotation Yrotation Xrotation
			JOINT LeftFoot
			{
				OFFSET -1.359570 -39.796059 -4.369333
				CHANNELS 3 Zrotation Yrotation Xrotation
				JOINT LeftToe
				{
					OFFSET 2.635814 -5.579078 11.928840
					CHANNELS 3 Zrotation Yrotation Xrotation
					End Site
					{
						OFFSET 0.000000 0.000000 0.000000
					}
				}
			}
		}
	}
	JOINT RightUpLeg
	{
		OFFSET -6.767048 -9.052170 -0.431982
		CHANNELS 3 Zrotation Yrotation Xrotation
		JOINT RightLeg
		{
			OFFSET -3.829005 -38.256897 -0.885003
			CHANNELS 3 Zrotation Yrotation Xrotation
			JOINT RightFoot
			{
				OFFSET 1.577377 -39.841461 -4.231180
				CHANNELS 3 Zrotation Yrotation Xrotation
				JOINT RightToe
				{
					OFFSET -2.537174 -4.814398 12.334795
					CHANNELS 3 Zrotation Yrotation Xrotation
					End Site
					{
						OFFSET 0.000000 0.000000 0.000000
					}
				}
			}
		}
	}
	JOINT Spine
	{
		OFFSET -0.253288 10.896323 -2.669631
		CHANNELS 3 Zrotation Yrotation Xrotation
		JOINT Spine1
		{
			OFFSET 0.548704 13.518043 0.109247
			CHANNELS 3 Zrotation Yrotation Xrotation
			JOINT Spine2
			{
				OFFSET 0.145701 5.292222 2.542457
				CHANNELS 3 Zrotation Yrotation Xrotation
				JOINT Neck
				{
					OFFSET -0.277840 21.387037 -4.285703
					CHANNELS 3 Zrotation Yrotation Xrotation
					JOINT Head
					{
						OFFSET 0.515184 6.496960 5.134897
						CHANNELS 3 Zrotation Yrotation Xrotation
						End Site
						{
							OFFSET 0.000000 0.000000 0.000000
						}
					}
				}
				JOINT LeftShoulder
				{
					OFFSET 7.884473 12.174932 -3.408961
					CHANNELS 3 Zrotation Yrotation Xrotation
					JOINT LeftArm
					{
						OFFSET 9.097692 3.046888 -0.886815
						CHANNELS 3 Zrotation Yrotation Xrotation
						JOINT LeftForeArm
						{
							OFFSET 25.961220 -1.277207 -2.745643
							CHANNELS 3 Zrotation Yrotation Xrotation
							JOINT LeftHand
							{
								OFFSET 24.923361 0.898606 -0.117091
								CHANNELS 3 Zrotation Yrotation Xrotation
								End Site
								{
									OFFSET 0.000000 0.000000 0.000000
								}
							}
						}
					}
				}
				JOINT RightShoulder
				{
					OFFSET -8.175920 11.883285 -3.861528
					CHANNELS 3 Zrotation Yrotation Xrotation
					JOINT RightArm
					{
						OFFSET -9.601238 3.255117 -0.914307
						CHANNELS 3 Zrotation Yrotation Xrotation
						JOINT RightForeArm
						{
							OFFSET -25.374195 -1.332924 -2.140099
							CHANNELS 3 Zrotation Yrotation Xrotation
							JOINT RightHand
							{
								OFFSET -25.529810 0.777228 -0.555919
								CHANNELS 3 Zrotation Yrotation Xrotation
								End Site
								{
									OFFSET 0.000000 0.000000 0.000000
								}
							}
						}
					}
				}
			}
		}
	}
}
MOTION
Frames: 9
Frame Time: 0.033333
-43.695553 -274.097626 91.706497 -179.937485 -0.053560 88.034976 -2.672273 3.672781 5.302001 -2.971767 -1.729378 6.970150 5.768578 10.538293 -17.746633 nan nan nan -1.927862 -4.836014 4.508399 2.134214 0.974390 6.021257 3.715846 -3.034600 -15.153129 nan nan nan -0.087690 1.824996 7.658287 0.815163 -2.892460 5.005036 -0.129526 -0.308591 -1.074482 1.755376 -5.935326 -0.188194 0.180632 -10.941149 4.732737 -23.225738 -1.864876 2.857040 -52.849206 -7.545825 18.591709 -26.977563 -57.916180 50.377652 1.687759 -17.937969 0.648508 21.205979 5.992895 4.061692 57.458304 2.139437 19.010477 3.068187 56.715508 25.110384 4.652092 11.476192 7.971246 
-43.692318 -274.118530 91.713074 -179.887263 -0.065552 87.951560 -2.682460 3.418509 5.403303 -2.959370 -1.359076 6.921144 5.863857 10.357324 -17.799893 nan nan nan -2.024420 -4.904421 4.654158 2.236346 0.706320 6.019728 3.796744 -2.818313 -15.026320 nan nan nan -0.177741 1.864619 7.653880 0.875140 -3.056349 5.166390 -0.128881 -0.167689 -1.123941 1.786744 -6.743261 -0.631978 0.194625 -11.383329 5.361908 -22.873544 -1.873236 3.056630 -53.121931 -8.511117 19.086579 -28.139697 -59.698724 52.930984 0.612316 -21.057840 -0.475823 20.795984 6.143392 3.840983 56.407202 2.516053 19.259419 4.854153 57.597895 33.985092 10.714015 16.842198 14.087463 
-43.627556 -274.088379 91.696259 -179.728319 -0.025817 87.887088 -2.549732 3.285415 5.538916 -2.973350 -1.294142 6.807560 5.637093 10.071577 -17.801476 nan nan nan -1.929515 -5.010089 4.895721 2.213818 0.598301 5.815839 3.890458 -2.786632 -14.936257 nan nan nan -0.366420 1.836961 7.514304 1.003783 -3.228125 5.446000 -0.057596 -0.126650 -1.216043 1.889300 -7.279814 -0.846735 0.160967 -11.811441 5.800159 -22.552224 -1.908745 3.000402 -53.079059 -9.233827 19.595904 -30.282983 -61.701153 55.547286 -0.243838 -22.964170 -2.043998 20.298834 6.376279 3.485720 55.660438 3.420539 19.671096 7.445581 59.371024 39.456529 15.530300 18.569870 15.667186 
-43.568184 -274.124969 91.651535 -179.431238 -0.107414 88.162876 -2.618645 3.409581 5.049133 -2.894231 -1.630084 7.025145 5.073444 9.948801 -17.853283 nan nan nan -1.945385 -5.130622 4.578291 2.181846 0.403247 5.831004 4.152493 -2.665824 -15.081511 nan nan nan -0.601013 1.632764 7.191488 1.063598 -3.320093 5.442195 -0.072776 -0.333812 -1.260942 2.171975 -7.137066 -0.585470 0.078982 -12.338726 5.447355 -22.293845 -2.026617 2.302189 -52.513661 -9.141628 20.183770 -35.249829 -64.138980 60.217444 -0.772305 -21.139573 -3.106442 19.518645 6.653526 2.949233 56.472187 4.647753 20.559667 11.148834 62.653083 36.551317 16.129798 11.228936 0.391974 
-43.565659 -274.099365 91.619934 -178.810290 0.015015 88.285346 -2.453941 3.232342 4.765537 -2.788717 -1.531141 7.291414 5.054044 9.441420 -17.959992 nan nan nan -1.837140 -5.349599 4.791678 2.261715 0.015068 5.384836 4.279781 -2.651068 -14.993404 nan nan nan -0.511871 1.336909 6.847041 1.194570 -3.611693 5.608424 -0.099272 -0.465786 -1.218935 2.144189 -7.363282 -0.683594 -0.000935 -12.464088 5.407743 -22.110784 -2.058339 2.121999 -52.362501 -9.722043 20.663836 -38.996713 -65.951879 64.047852 0.079918 -22.093594 -3.522453 19.482048 7.080163 3.117962 56.615410 3.930571 21.372079 11.802402 65.798071 33.089457 13.288850 12.146324 -3.708029 
-43.609325 -274.012146 91.642876 -177.956221 0.296041 88.080186 -2.155645 3.033855 4.929345 -2.623138 -1.730521 7.474247 4.846897 8.984639 -18.108789 nan nan nan -1.578692 -5.850995 5.581296 2.275162 -0.252840 4.637744 4.462731 -2.840010 -14.602670 nan nan nan -0.194958 0.937321 6.837841 1.353067 -4.135493 5.811597 -0.158711 -0.501708 -1.233548 2.027978 -7.661597 -0.889093 0.002541 -12.348567 5.607003 -21.950930 -2.085715 1.905078 -52.475909 -10.223806 20.884292 -42.780510 -67.726278 68.025492 -0.410395 -22.707418 -4.524728 19.112970 7.320964 2.760363 56.038542 4.455041 21.570325 15.601478 68.203161 36.952217 16.318711 12.599643 -4.419755 
-43.706577 -273.896332 91.671158 -176.931513 0.610776 87.798168 -1.849951 2.770650 5.214303 -2.477973 -2.047390 7.617132 4.768258 8.570977 -18.273211 nan nan nan -1.372141 -6.488731 6.601534 2.396496 -0.490896 3.722672 4.561286 -3.053445 -14.253103 nan nan nan 0.282523 0.480724 6.859565 1.481451 -4.803714 6.068974 -0.265872 -0.564568 -1.315854 1.806029 -7.874793 -0.871045 -0.013898 -11.969241 5.697460 -21.739357 -2.109559 1.731697 -52.815632 -10.679506 21.026192 -46.774202 -69.415258 71.799198 -0.526083 -22.842120 -6.540287 18.538593 7.521156 2.332444 55.789196 4.978693 21.774276 20.010456 70.547389 41.406582 18.801652 12.998633 -5.729046 
-43.579323 -274.080475 91.665459 -177.237813 0.702527 87.946475 -1.580224 2.747560 4.839877 -2.663953 -1.558683 7.785173 4.713174 8.391420 -18.323779 nan nan nan -1.054430 -6.202152 6.007622 2.217600 -0.713986 4.220769 4.539042 -2.717657 -14.405592 nan nan nan 0.158824 0.547864 7.237744 1.606757 -4.640286 5.518771 -0.154314 -0.562073 -1.261608 1.850549 -7.667938 -1.232293 -0.140061 -11.868087 6.083364 -21.197406 -2.049761 1.382251 -53.317480 -11.162604 21.190541 -50.665906 -70.915094 75.307289 -1.225809 -23.263849 -8.090378 17.956229 7.453467 1.819298 55.936555 5.657933 22.169165 24.668190 72.868825 46.084759 21.034372 13.642799 -7.776607 
-43.320030 -274.460938 91.634254 -178.481510 0.587415 88.521329 -1.497126 2.731113 3.947331 -2.923320 -0.387946 7.816533 4.659986 8.468827 -18.201306 nan nan nan -0.708118 -5.126842 4.169608 1.775663 -0.959998 5.622850 4.437652 -2.296672 -14.683565 nan nan nan -0.460633 0.953655 7.635699 1.721462 -3.834420 4.487105 0.122144 -0.532248 -1.126985 2.131558 -7.182604 -2.024377 -0.394359 -11.883689 6.925739 -20.588465 -1.789795 0.952120 -53.809688 -11.653907 21.442236 -54.558758 -72.389247 78.582845 -2.497432 -23.989448 -9.290453 17.593790 7.069722 1.157842 56.067202 6.473099 22.772057 30.225552 75.123028 51.719190 23.953563 14.589070 -9.603999 
